<svg xmlns="http://www.w3.org/2000/svg" xmlns:xlink="http://www.w3.org/1999/xlink" viewBox="0 0 1922.66 1078.96"><defs><style>.cls-1{fill:url(#linear-gradient);}</style><linearGradient id="linear-gradient" x1="1765.6" y1="75.13" x2="-7.7" y2="1098.95" gradientUnits="userSpaceOnUse"><stop offset="0" stop-color="#2a73ff"/><stop offset="1" stop-color="aqua"/></linearGradient></defs><g id="Layer_2" data-name="Layer 2"><g id="Layer_1-2" data-name="Layer 1"><path class="cls-1" d="M132.45,1010.11A361,361,0,0,1,267.56,999c24.85,2.71,47.18,5.89,70.5,15.72s46.57,22.91,72.56,21c19.24-1.39,36.82-11,54.53-18.76,70.63-31,152.47-34.67,225.49-10,21.14,7.13,42.17,16.65,64.44,16.59,21.63-.06,42.07-9.14,62.57-16.14,88.41-30.21,188.83-21.82,271.22,22.66,8.84,4.78,17.88,10.06,27.86,10.64,12.36.72,23.82-5.84,34.83-11.6,84.67-44.29,188.07-49.66,276.72-14.38,18.63,7.41,37.11,16.64,57.07,17.93,26.52,1.72,51.62-10.72,76.55-20.08,126.49-43,243.27-7.9,351.74,62.37,2.79,1.81,5.77,3.66,9,4L1921.5,361.5a130.69,130.69,0,0,0-.5-38.17c-24.12-145.17-304-164.83-304-164.83H1312.5C1080,158.5,961,0,961,0H0L1,1078.05A357,357,0,0,1,132.45,1010.11Z"/></g></g></svg>